<svg width="36" height="40" viewBox="0 0 36 40" fill="none" xmlns="http://www.w3.org/2000/svg">
<path d="M30.903 2.34375C30.0495 2.34375 29.2493 2.57414 28.5593 2.97437V1.17188C28.5593 0.524687 28.0346 0 27.3874 0H8.63739C7.99013 0 7.46544 0.524687 7.46544 1.17188V2.98867C6.76989 2.57953 5.9606 2.34375 5.09692 2.34375C2.51224 2.34375 0.409424 4.44656 0.409424 7.03125C0.409424 9.00273 0.993643 10.9077 2.09888 12.5402C3.98044 15.3193 6.30067 16.0405 8.2206 16.8084C9.32763 19.5653 11.5663 21.7502 14.3589 22.7846L13.4947 28.2812H13.3249C11.3864 28.2812 9.80927 29.8584 9.80927 31.7969V37.6562H8.63739C7.9902 37.6562 7.46552 38.1809 7.46552 38.8281C7.46552 39.4753 7.9902 40 8.63739 40H27.3874C28.0346 40 28.5593 39.4753 28.5593 38.8281C28.5593 38.1809 28.0346 37.6562 27.3874 37.6562H26.2155V31.7969C26.2155 29.8584 24.6384 28.2812 22.6999 28.2812H22.53L21.666 22.7847C24.4626 21.7487 26.7038 19.5591 27.8092 16.7966C29.6229 16.0711 32.0003 15.3478 33.9011 12.5402C35.0064 10.9077 35.5906 9.00266 35.5906 7.03125C35.5905 4.44656 33.4877 2.34375 30.903 2.34375ZM7.45677 13.9787C4.59942 12.8357 2.75317 10.1087 2.75317 7.03125C2.75317 5.73891 3.80458 4.6875 5.09692 4.6875C6.38927 4.6875 7.44067 5.73891 7.44067 7.03125C7.44067 7.11367 7.44935 7.19398 7.46552 7.27156V12.8906C7.46552 13.2673 7.48575 13.6392 7.5245 14.0058L7.45677 13.9787ZM23.8718 37.6562H12.153V35.3125H23.8718V37.6562ZM22.6999 30.625C23.3461 30.625 23.8718 31.1507 23.8718 31.7969V32.9688H12.153V31.7969C12.153 31.1507 12.6787 30.625 13.3249 30.625C13.9607 30.625 21.2089 30.625 22.6999 30.625ZM15.8672 28.2812L16.6427 23.3487C17.0911 23.4071 17.5483 23.4375 18.0124 23.4375C18.4765 23.4375 18.9336 23.407 19.3821 23.3487L20.1575 28.2812H15.8672ZM26.2155 12.8906C26.2155 17.4138 22.5356 21.0938 18.0124 21.0938C13.4892 21.0938 9.80927 17.4138 9.80927 12.8906V7.03125H26.2155V12.8906ZM26.2155 4.6875H9.80927V2.34375H26.2155V4.6875ZM28.5431 13.9787L28.5015 13.9953C28.5394 13.6322 28.5592 13.2637 28.5592 12.8906V7.03125C28.5593 5.73891 29.6107 4.6875 30.903 4.6875C32.1954 4.6875 33.2468 5.73891 33.2468 7.03125C33.2468 10.1087 31.4005 12.8358 28.5431 13.9787Z" fill="#3A3A3A"/>
</svg>
